<?xml version="1.0" encoding="UTF-8"?>
<svg width="232px" height="232px" viewBox="0 0 232 232" version="1.1" xmlns="http://www.w3.org/2000/svg" xmlns:xlink="http://www.w3.org/1999/xlink">
    <!-- Generator: Sketch 47.1 (45422) - http://www.bohemiancoding.com/sketch -->
    <title>Record Icon</title>
    <desc>Created with Sketch.</desc>
    <defs>
        <linearGradient x1="23.2459136%" y1="130.752458%" x2="87.9811324%" y2="63.6016625%" id="linearGradient-1">
            <stop stop-color="#FFFFFF" offset="0%"></stop>
            <stop stop-color="#000000" offset="100%"></stop>
        </linearGradient>
    </defs>
    <g id="Symbols" stroke="none" stroke-width="1" fill="none" fill-rule="evenodd">
        <g id="Record-Icon">
            <g id="Record">
                <circle id="Oval" fill="url(#linearGradient-1)" cx="116" cy="116" r="116"></circle>
                <circle id="Oval-5" fill="#686868" cx="116" cy="115" r="54"></circle>
                <circle id="Oval-2" fill="#FFFFFF" cx="116.5" cy="115.5" r="30.5"></circle>
                <circle id="Oval-4" fill="#686868" cx="116" cy="116" r="3"></circle>
                <path d="M119.334103,73.1316491 C127.957307,72.4744653 135.657632,74.2777463 142.435077,78.541492 C149.212523,82.8052378 153.983264,88.8476046 156.7473,96.6685924 L152.179726,99.8035596 C149.787597,92.2555387 145.446485,86.5259814 139.156389,82.6148878 C132.866293,78.7037941 125.814163,77.2287554 118,78.1897717 L119.334103,73.1316491 Z" id="Rectangle-2" fill="#D8D8D8"></path>
                <path d="M82.6849111,133.227506 C88.6679438,132.771533 94.0106558,134.022702 98.7130473,136.981015 C103.415439,139.939327 106.725519,144.131699 108.643288,149.558131 L105.474171,151.733263 C103.814442,146.496224 100.80245,142.520889 96.4381966,139.807257 C92.0739427,137.093625 87.1809675,136.070199 81.7592711,136.736981 L82.6849111,133.227506 Z" id="Rectangle-2" fill="#D8D8D8" transform="translate(95.201280, 142.434714) rotate(-175.000000) translate(-95.201280, -142.434714) "></path>
            </g>
        </g>
    </g>
</svg>