<?xml version="1.0" encoding="UTF-8"?>
<svg width="313px" height="312px" viewBox="0 0 313 312" version="1.1" xmlns="http://www.w3.org/2000/svg" xmlns:xlink="http://www.w3.org/1999/xlink">
    <!-- Generator: Sketch 47.1 (45422) - http://www.bohemiancoding.com/sketch -->
    <title>Multiple Tabs</title>
    <desc>Created with Sketch.</desc>
    <defs>
        <filter x="-4.3%" y="-4.0%" width="108.7%" height="108.7%" filterUnits="objectBoundingBox" id="filter-1">
            <feOffset dx="0" dy="1" in="SourceAlpha" result="shadowOffsetOuter1"></feOffset>
            <feGaussianBlur stdDeviation="4" in="shadowOffsetOuter1" result="shadowBlurOuter1"></feGaussianBlur>
            <feColorMatrix values="0 0 0 0 0   0 0 0 0 0   0 0 0 0 0  0 0 0 0.5 0" type="matrix" in="shadowBlurOuter1" result="shadowMatrixOuter1"></feColorMatrix>
            <feMerge>
                <feMergeNode in="shadowMatrixOuter1"></feMergeNode>
                <feMergeNode in="SourceGraphic"></feMergeNode>
            </feMerge>
        </filter>
        <filter x="-4.4%" y="-4.1%" width="108.9%" height="109.2%" filterUnits="objectBoundingBox" id="filter-2">
            <feOffset dx="0" dy="1" in="SourceAlpha" result="shadowOffsetOuter1"></feOffset>
            <feGaussianBlur stdDeviation="4" in="shadowOffsetOuter1" result="shadowBlurOuter1"></feGaussianBlur>
            <feColorMatrix values="0 0 0 0 0   0 0 0 0 0   0 0 0 0 0  0 0 0 0.5 0" type="matrix" in="shadowBlurOuter1" result="shadowMatrixOuter1"></feColorMatrix>
            <feMerge>
                <feMergeNode in="shadowMatrixOuter1"></feMergeNode>
                <feMergeNode in="SourceGraphic"></feMergeNode>
            </feMerge>
        </filter>
    </defs>
    <g id="Symbols" stroke="none" stroke-width="1" fill="none" fill-rule="evenodd">
        <g id="Multiple-Tabs" transform="translate(8.000000, 5.000000)">
            <g id="Tabs-Page">
                <g transform="translate(152.155172, 150.000000) rotate(1.000000) translate(-152.155172, -150.000000) translate(6.896552, 5.836576)">
                    <rect id="Rectangle-12" fill="#F1F1F1" x="0" y="0" width="290.517241" height="288.326848" rx="10"></rect>
                    <g id="Music-Staff-5" transform="translate(36.014534, 228.793774)">
                        <g id="Staff" stroke="#979797" stroke-linecap="square">
                            <path d="M0.389966292,0.628554325 L244.508865,0.628554325" id="Line"></path>
                            <path d="M0.389966292,6.91409758 L244.508865,6.91409758" id="Line"></path>
                            <path d="M0.389966292,13.1996408 L244.508865,13.1996408" id="Line"></path>
                            <path d="M0.389966292,19.4851841 L244.508865,19.4851841" id="Line"></path>
                            <path d="M0.389966292,25.7707273 L244.508865,25.7707273" id="Line"></path>
                            <path d="M0.389966292,32.0562706 L244.508865,32.0562706" id="Line"></path>
                        </g>
                        <g id="Notes-row-5" transform="translate(201.196346, 4.842196)" fill="#C4B9B9">
                            <ellipse id="Oval" cx="1.64915038" cy="2.42109814" rx="1.64915038" ry="2.42109814"></ellipse>
                            <ellipse id="Oval" cx="9.89490229" cy="8.47384349" rx="1.64915038" ry="2.42109814"></ellipse>
                        </g>
                    </g>
                    <g id="Music-Staff-4" transform="translate(36.014534, 178.599222)">
                        <g id="Staff" stroke="#979797" stroke-linecap="square">
                            <path d="M0.389966292,0.628554325 L244.508865,0.628554325" id="Line"></path>
                            <path d="M0.389966292,6.91409758 L244.508865,6.91409758" id="Line"></path>
                            <path d="M0.389966292,13.1996408 L244.508865,13.1996408" id="Line"></path>
                            <path d="M0.389966292,19.4851841 L244.508865,19.4851841" id="Line"></path>
                            <path d="M0.389966292,25.7707273 L244.508865,25.7707273" id="Line"></path>
                            <path d="M0.389966292,32.0562706 L244.508865,32.0562706" id="Line"></path>
                        </g>
                        <g id="Notes-row-4" transform="translate(195.424320, 3.631647)" fill="#C4B9B9">
                            <ellipse id="Oval" cx="1.64915038" cy="2.42109814" rx="1.64915038" ry="2.42109814"></ellipse>
                            <ellipse id="Oval" cx="15.6669286" cy="12.1054907" rx="1.64915038" ry="2.42109814"></ellipse>
                            <ellipse id="Oval" cx="15.6669286" cy="25.4215305" rx="1.64915038" ry="2.42109814"></ellipse>
                        </g>
                    </g>
                    <g id="Music-Staff-3" transform="translate(36.014534, 129.571984)">
                        <g id="Staff" stroke="#979797" stroke-linecap="square">
                            <path d="M0.389966292,0.628554325 L244.508865,0.628554325" id="Line"></path>
                            <path d="M0.389966292,6.91409758 L244.508865,6.91409758" id="Line"></path>
                            <path d="M0.389966292,13.1996408 L244.508865,13.1996408" id="Line"></path>
                            <path d="M0.389966292,19.4851841 L244.508865,19.4851841" id="Line"></path>
                            <path d="M0.389966292,25.7707273 L244.508865,25.7707273" id="Line"></path>
                            <path d="M0.389966292,32.0562706 L244.508865,32.0562706" id="Line"></path>
                        </g>
                        <g id="Notes-row-3" transform="translate(195.424320, 3.631647)" fill="#C4B9B9">
                            <ellipse id="Oval" cx="23.0881053" cy="2.42109814" rx="1.64915038" ry="2.42109814"></ellipse>
                            <ellipse id="Oval" cx="1.64915038" cy="15.7371379" rx="1.64915038" ry="2.42109814"></ellipse>
                            <ellipse id="Oval" cx="18.1406542" cy="21.7898833" rx="1.64915038" ry="2.42109814"></ellipse>
                        </g>
                    </g>
                    <g id="Music-Staff-2" transform="translate(36.014534, 80.544747)">
                        <g id="Staff" stroke="#979797" stroke-linecap="square">
                            <path d="M0.389966292,0.627752598 L244.508865,0.627752598" id="Line"></path>
                            <path d="M0.389966292,6.90527857 L244.508865,6.90527857" id="Line"></path>
                            <path d="M0.389966292,13.1828045 L244.508865,13.1828045" id="Line"></path>
                            <path d="M0.389966292,19.4603305 L244.508865,19.4603305" id="Line"></path>
                            <path d="M0.389966292,25.7378565 L244.508865,25.7378565" id="Line"></path>
                            <path d="M0.389966292,32.0153825 L244.508865,32.0153825" id="Line"></path>
                        </g>
                        <g id="Notes-row-2" transform="translate(195.424320, 3.627015)" fill="#C4B9B9">
                            <ellipse id="Oval" cx="1.64915038" cy="2.41801001" rx="1.64915038" ry="2.41801001"></ellipse>
                            <ellipse id="Oval" cx="8.2457519" cy="15.717065" rx="1.64915038" ry="2.41801001"></ellipse>
                            <ellipse id="Oval" cx="42.8779099" cy="27.8071151" rx="1.64915038" ry="2.41801001"></ellipse>
                        </g>
                    </g>
                    <g id="Music-Staff-1" transform="translate(36.014534, 32.684825)">
                        <g id="Staff-lines" stroke="#979797" stroke-linecap="square">
                            <path d="M0.389966292,0.628554325 L244.508865,0.628554325" id="Line"></path>
                            <path d="M0.389966292,6.91409758 L244.508865,6.91409758" id="Line"></path>
                            <path d="M0.389966292,13.1996408 L244.508865,13.1996408" id="Line"></path>
                            <path d="M0.389966292,19.4851841 L244.508865,19.4851841" id="Line"></path>
                            <path d="M0.389966292,25.7707273 L244.508865,25.7707273" id="Line"></path>
                            <path d="M0.389966292,32.0562706 L244.508865,32.0562706" id="Line"></path>
                        </g>
                        <g id="Notes-row-1" transform="translate(195.424320, 3.631647)" fill="#C4B9B9">
                            <ellipse id="Oval" cx="1.64915038" cy="2.42109814" rx="1.64915038" ry="2.42109814"></ellipse>
                            <ellipse id="Oval" cx="14.0177782" cy="12.1054907" rx="1.64915038" ry="2.42109814"></ellipse>
                            <ellipse id="Oval" cx="2.47372557" cy="24.2109814" rx="1.64915038" ry="2.42109814"></ellipse>
                            <ellipse id="Oval" cx="34.632158" cy="14.5265888" rx="1.64915038" ry="2.42109814"></ellipse>
                        </g>
                    </g>
                </g>
                <g filter="url(#filter-1)" transform="translate(148.275862, 150.000000) rotate(-2.000000) translate(-148.275862, -150.000000) translate(4.310345, 7.003891)">
                    <rect id="Rectangle-12" fill="#F1F1F1" x="0" y="0" width="287.931034" height="285.992218" rx="10"></rect>
                    <g id="Music-Staff-5" transform="translate(35.991379, 226.459144)">
                        <g id="Staff" stroke="#979797" stroke-linecap="square">
                            <path d="M0.385894831,0.628554325 L241.956059,0.628554325" id="Line"></path>
                            <path d="M0.385894831,6.91409758 L241.956059,6.91409758" id="Line"></path>
                            <path d="M0.385894831,13.1996408 L241.956059,13.1996408" id="Line"></path>
                            <path d="M0.385894831,19.4851841 L241.956059,19.4851841" id="Line"></path>
                            <path d="M0.385894831,25.7707273 L241.956059,25.7707273" id="Line"></path>
                            <path d="M0.385894831,32.0562706 L241.956059,32.0562706" id="Line"></path>
                        </g>
                        <g id="Notes-row-5" transform="translate(199.095747, 4.842196)" fill="#C4B9B9">
                            <ellipse id="Oval" cx="1.63193235" cy="2.42109814" rx="1.63193235" ry="2.42109814"></ellipse>
                            <ellipse id="Oval" cx="9.7915941" cy="8.47384349" rx="1.63193235" ry="2.42109814"></ellipse>
                        </g>
                    </g>
                    <g id="Music-Staff-4" transform="translate(35.991379, 177.431907)">
                        <g id="Staff" stroke="#979797" stroke-linecap="square">
                            <path d="M0.385894831,0.628554325 L241.956059,0.628554325" id="Line"></path>
                            <path d="M0.385894831,6.91409758 L241.956059,6.91409758" id="Line"></path>
                            <path d="M0.385894831,13.1996408 L241.956059,13.1996408" id="Line"></path>
                            <path d="M0.385894831,19.4851841 L241.956059,19.4851841" id="Line"></path>
                            <path d="M0.385894831,25.7707273 L241.956059,25.7707273" id="Line"></path>
                            <path d="M0.385894831,32.0562706 L241.956059,32.0562706" id="Line"></path>
                        </g>
                        <g id="Notes-row-4" transform="translate(193.383984, 3.631647)" fill="#C4B9B9">
                            <ellipse id="Oval" cx="1.63193235" cy="2.42109814" rx="1.63193235" ry="2.42109814"></ellipse>
                            <ellipse id="Oval" cx="15.5033573" cy="12.1054907" rx="1.63193235" ry="2.42109814"></ellipse>
                            <ellipse id="Oval" cx="15.5033573" cy="25.4215305" rx="1.63193235" ry="2.42109814"></ellipse>
                        </g>
                    </g>
                    <g id="Music-Staff-3" transform="translate(35.991379, 128.404669)">
                        <g id="Staff" stroke="#979797" stroke-linecap="square">
                            <path d="M0.385894831,0.628554325 L241.956059,0.628554325" id="Line"></path>
                            <path d="M0.385894831,6.91409758 L241.956059,6.91409758" id="Line"></path>
                            <path d="M0.385894831,13.1996408 L241.956059,13.1996408" id="Line"></path>
                            <path d="M0.385894831,19.4851841 L241.956059,19.4851841" id="Line"></path>
                            <path d="M0.385894831,25.7707273 L241.956059,25.7707273" id="Line"></path>
                            <path d="M0.385894831,32.0562706 L241.956059,32.0562706" id="Line"></path>
                        </g>
                        <g id="Notes-row-3" transform="translate(193.383984, 3.631647)" fill="#C4B9B9">
                            <ellipse id="Oval" cx="22.8470529" cy="2.42109814" rx="1.63193235" ry="2.42109814"></ellipse>
                            <ellipse id="Oval" cx="1.63193235" cy="15.7371379" rx="1.63193235" ry="2.42109814"></ellipse>
                            <ellipse id="Oval" cx="17.9512559" cy="21.7898833" rx="1.63193235" ry="2.42109814"></ellipse>
                        </g>
                    </g>
                    <g id="Music-Staff-2" transform="translate(35.991379, 79.377432)">
                        <g id="Staff" stroke="#979797" stroke-linecap="square">
                            <path d="M0.385894831,0.627752598 L241.956059,0.627752598" id="Line"></path>
                            <path d="M0.385894831,6.90527857 L241.956059,6.90527857" id="Line"></path>
                            <path d="M0.385894831,13.1828045 L241.956059,13.1828045" id="Line"></path>
                            <path d="M0.385894831,19.4603305 L241.956059,19.4603305" id="Line"></path>
                            <path d="M0.385894831,25.7378565 L241.956059,25.7378565" id="Line"></path>
                            <path d="M0.385894831,32.0153825 L241.956059,32.0153825" id="Line"></path>
                        </g>
                        <g id="Notes-row-2" transform="translate(193.383984, 3.627015)" fill="#C4B9B9">
                            <ellipse id="Oval" cx="1.63193235" cy="2.41801001" rx="1.63193235" ry="2.41801001"></ellipse>
                            <ellipse id="Oval" cx="8.15966175" cy="15.717065" rx="1.63193235" ry="2.41801001"></ellipse>
                            <ellipse id="Oval" cx="42.4302411" cy="27.8071151" rx="1.63193235" ry="2.41801001"></ellipse>
                        </g>
                    </g>
                    <g id="Music-Staff-1" transform="translate(35.991379, 32.684825)">
                        <g id="Staff-lines" stroke="#979797" stroke-linecap="square">
                            <path d="M0.385894831,0.628554325 L241.956059,0.628554325" id="Line"></path>
                            <path d="M0.385894831,6.91409758 L241.956059,6.91409758" id="Line"></path>
                            <path d="M0.385894831,13.1996408 L241.956059,13.1996408" id="Line"></path>
                            <path d="M0.385894831,19.4851841 L241.956059,19.4851841" id="Line"></path>
                            <path d="M0.385894831,25.7707273 L241.956059,25.7707273" id="Line"></path>
                            <path d="M0.385894831,32.0562706 L241.956059,32.0562706" id="Line"></path>
                        </g>
                        <g id="Notes-row-1" transform="translate(193.383984, 3.631647)" fill="#C4B9B9">
                            <ellipse id="Oval" cx="1.63193235" cy="2.42109814" rx="1.63193235" ry="2.42109814"></ellipse>
                            <ellipse id="Oval" cx="13.871425" cy="12.1054907" rx="1.63193235" ry="2.42109814"></ellipse>
                            <ellipse id="Oval" cx="2.44789853" cy="24.2109814" rx="1.63193235" ry="2.42109814"></ellipse>
                            <ellipse id="Oval" cx="34.2705794" cy="14.5265888" rx="1.63193235" ry="2.42109814"></ellipse>
                        </g>
                    </g>
                </g>
                <g filter="url(#filter-2)" transform="translate(4.310345, 10.505837)">
                    <rect id="Rectangle-12" fill="#F1F1F1" x="0" y="0" width="283.62069" height="280.155642" rx="10"></rect>
                    <g id="Music-Staff-5" transform="translate(35.352154, 221.789883)">
                        <g id="Staff" stroke="#979797" stroke-linecap="square">
                            <path d="M0.379979362,0.606105956 L238.24706,0.606105956" id="Line"></path>
                            <path d="M0.379979362,6.66716552 L238.24706,6.66716552" id="Line"></path>
                            <path d="M0.379979362,12.7282251 L238.24706,12.7282251" id="Line"></path>
                            <path d="M0.379979362,18.7892846 L238.24706,18.7892846" id="Line"></path>
                            <path d="M0.379979362,24.8503442 L238.24706,24.8503442" id="Line"></path>
                            <path d="M0.379979362,30.9114038 L238.24706,30.9114038" id="Line"></path>
                        </g>
                        <g id="Notes-row-5" transform="translate(221.069118, 4.669261)" fill="#C4B9B9">
                            <ellipse id="Oval" cx="1.60691609" cy="2.33463035" rx="1.60691609" ry="2.33463035"></ellipse>
                            <ellipse id="Oval" cx="9.64149653" cy="8.17120623" rx="1.60691609" ry="2.33463035"></ellipse>
                        </g>
                    </g>
                    <g id="Music-Staff-4" transform="translate(35.352154, 173.929961)">
                        <g id="Staff" stroke="#979797" stroke-linecap="square">
                            <path d="M0.379979362,0.606105956 L238.24706,0.606105956" id="Line"></path>
                            <path d="M0.379979362,6.66716552 L238.24706,6.66716552" id="Line"></path>
                            <path d="M0.379979362,12.7282251 L238.24706,12.7282251" id="Line"></path>
                            <path d="M0.379979362,18.7892846 L238.24706,18.7892846" id="Line"></path>
                            <path d="M0.379979362,24.8503442 L238.24706,24.8503442" id="Line"></path>
                            <path d="M0.379979362,30.9114038 L238.24706,30.9114038" id="Line"></path>
                        </g>
                        <g id="Notes-row-4" transform="translate(199.595520, 3.501946)" fill="#C4B9B9">
                            <ellipse id="Oval" cx="1.60691609" cy="2.33463035" rx="1.60691609" ry="2.33463035"></ellipse>
                            <ellipse id="Oval" cx="15.2657028" cy="11.6731518" rx="1.60691609" ry="2.33463035"></ellipse>
                            <ellipse id="Oval" cx="15.2657028" cy="24.5136187" rx="1.60691609" ry="2.33463035"></ellipse>
                        </g>
                    </g>
                    <g id="Music-Staff-3" transform="translate(35.352154, 126.070039)">
                        <g id="Staff" stroke="#979797" stroke-linecap="square">
                            <path d="M0.379979362,0.606105956 L238.24706,0.606105956" id="Line"></path>
                            <path d="M0.379979362,6.66716552 L238.24706,6.66716552" id="Line"></path>
                            <path d="M0.379979362,12.7282251 L238.24706,12.7282251" id="Line"></path>
                            <path d="M0.379979362,18.7892846 L238.24706,18.7892846" id="Line"></path>
                            <path d="M0.379979362,24.8503442 L238.24706,24.8503442" id="Line"></path>
                            <path d="M0.379979362,30.9114038 L238.24706,30.9114038" id="Line"></path>
                        </g>
                        <g id="Notes-row-3" transform="translate(210.439840, 3.501946)" fill="#C4B9B9">
                            <ellipse id="Oval" cx="22.4968252" cy="2.33463035" rx="1.60691609" ry="2.33463035"></ellipse>
                            <ellipse id="Oval" cx="1.60691609" cy="15.1750973" rx="1.60691609" ry="2.33463035"></ellipse>
                            <ellipse id="Oval" cx="17.676077" cy="21.0116732" rx="1.60691609" ry="2.33463035"></ellipse>
                        </g>
                    </g>
                    <g id="Music-Staff-2" transform="translate(35.352154, 78.210117)">
                        <g id="Staff" stroke="#979797" stroke-linecap="square">
                            <path d="M0.379979362,0.606105956 L238.24706,0.606105956" id="Line"></path>
                            <path d="M0.379979362,6.66716552 L238.24706,6.66716552" id="Line"></path>
                            <path d="M0.379979362,12.7282251 L238.24706,12.7282251" id="Line"></path>
                            <path d="M0.379979362,18.7892846 L238.24706,18.7892846" id="Line"></path>
                            <path d="M0.379979362,24.8503442 L238.24706,24.8503442" id="Line"></path>
                            <path d="M0.379979362,30.9114038 L238.24706,30.9114038" id="Line"></path>
                        </g>
                        <g id="Notes-row-2" transform="translate(190.419557, 3.501946)" fill="#C4B9B9">
                            <ellipse id="Oval" cx="1.60691609" cy="2.33463035" rx="1.60691609" ry="2.33463035"></ellipse>
                            <ellipse id="Oval" cx="8.03458044" cy="15.1750973" rx="1.60691609" ry="2.33463035"></ellipse>
                            <ellipse id="Oval" cx="41.7798183" cy="26.848249" rx="1.60691609" ry="2.33463035"></ellipse>
                        </g>
                    </g>
                    <g id="Music-Staff-1" transform="translate(35.352154, 31.517510)">
                        <g id="Staff-lines" stroke="#979797" stroke-linecap="square">
                            <path d="M0.379979362,0.606105956 L238.24706,0.606105956" id="Line"></path>
                            <path d="M0.379979362,6.66716552 L238.24706,6.66716552" id="Line"></path>
                            <path d="M0.379979362,12.7282251 L238.24706,12.7282251" id="Line"></path>
                            <path d="M0.379979362,18.7892846 L238.24706,18.7892846" id="Line"></path>
                            <path d="M0.379979362,24.8503442 L238.24706,24.8503442" id="Line"></path>
                            <path d="M0.379979362,30.9114038 L238.24706,30.9114038" id="Line"></path>
                        </g>
                        <g id="Notes-row-1" transform="translate(202.932234, 3.501946)" fill="#C4B9B9">
                            <ellipse id="Oval" cx="1.60691609" cy="2.33463035" rx="1.60691609" ry="2.33463035"></ellipse>
                            <ellipse id="Oval" cx="13.6587868" cy="11.6731518" rx="1.60691609" ry="2.33463035"></ellipse>
                            <ellipse id="Oval" cx="2.41037413" cy="23.3463035" rx="1.60691609" ry="2.33463035"></ellipse>
                            <ellipse id="Oval" cx="33.7452379" cy="14.0077821" rx="1.60691609" ry="2.33463035"></ellipse>
                        </g>
                    </g>
                </g>
            </g>
        </g>
    </g>
</svg>